<?xml version="1.0" standalone="no"?>
<!DOCTYPE svg PUBLIC "-//W3C//DTD SVG 20010904//EN"
 "http://www.w3.org/TR/2001/REC-SVG-20010904/DTD/svg10.dtd">
<svg version="1.0" xmlns="http://www.w3.org/2000/svg"
 width="233.000000pt" height="233.000000pt" viewBox="0 0 233.000000 233.000000"
 preserveAspectRatio="xMidYMid meet">
<metadata>
Created by potrace 1.14, written by Peter Selinger 2001-2017
</metadata>
<g transform="translate(0.000000,233.000000) scale(0.100000,-0.100000)"
fill="#000000" stroke="none">
<path d="M44 1942 l-41 -3 135 -337 c73 -185 154 -389 179 -452 25 -63 52
-131 60 -150 26 -61 29 -69 140 -347 l108 -273 131 0 131 0 98 238 c54 130
115 277 136 327 l38 89 21 -49 c12 -28 31 -72 42 -100 11 -27 30 -73 44 -103
13 -29 24 -55 24 -58 0 -3 8 -24 19 -47 10 -23 42 -99 72 -169 l53 -128 131 0
131 0 311 777 c171 428 310 779 309 780 -7 7 -319 4 -325 -3 -4 -5 -45 -112
-90 -239 -45 -126 -89 -246 -98 -265 -8 -19 -17 -42 -18 -50 -7 -29 -227 -625
-233 -632 -4 -4 -51 102 -105 235 l-97 242 106 280 c58 154 118 314 134 356
l28 76 -131 1 c-73 1 -137 -2 -143 -6 -5 -4 -47 -115 -93 -247 -45 -132 -86
-243 -89 -247 -4 -4 -38 84 -76 195 -38 111 -77 225 -88 253 l-19 52 -139 -1
c-77 0 -140 -1 -140 -1 0 -1 54 -145 121 -321 67 -176 126 -337 131 -358 10
-36 5 -53 -83 -278 -52 -131 -97 -239 -100 -239 -4 0 -11 17 -17 38 -5 20 -48
141 -95 267 -82 221 -314 857 -322 883 -3 7 -24 12 -57 12 -29 1 -84 2 -123 3
-38 1 -88 1 -111 -1z"/>
</g>
</svg>
